<svg xmlns="http://www.w3.org/2000/svg" viewBox="0 0 1000 545.89"><defs><style>.cls-1{fill:#369;}.cls-2{fill:#fd99cb;}.cls-3{fill:#346794;}</style></defs><g id="Layer_2" data-name="Layer 2"><g id="Layer_1-2" data-name="Layer 1"><path class="cls-1" d="M66.74,123.09h73.83a5.62,5.62,0,0,1,5.62,5.62h0a5.63,5.63,0,0,1-1.14,3.4L6.92,314.74A34.15,34.15,0,0,0,0,335.35H0a34.18,34.18,0,0,0,34.18,34.18h173a29.75,29.75,0,0,0,29.76-29.76h0A29.75,29.75,0,0,0,207.15,310H89.72A2.13,2.13,0,0,1,88,306.63L221.5,124.42A37.89,37.89,0,0,0,228.82,102h0a37.88,37.88,0,0,0-37.88-37.88H32.77A29.38,29.38,0,0,0,3.39,93.54h0a29.39,29.39,0,0,0,29.26,29.39Z"/><path class="cls-1" d="M255.69,104.31V331.86a37.66,37.66,0,0,0,37.67,37.67h107.8a30,30,0,0,0,30-30h0a30.05,30.05,0,0,0-30-30.05H321.85v-61h69.63a31.2,31.2,0,0,0,31.2-31.21h0a31.2,31.2,0,0,0-31.2-31.2H321.85V125.4h78.73a30.63,30.63,0,0,0,30.63-30.63h0a30.63,30.63,0,0,0-30.63-30.62H295.85A40.16,40.16,0,0,0,255.69,104.31Z"/><path class="cls-1" d="M781.07,164.06c-4.89,10.57-22.46,54.32-.75,97.14a6.94,6.94,0,0,1-.47,7.06l-43.12,62.41s-34.75-32-37.79-110.27c-1.16-29.71,4.73-59.37,18.22-85.86,9.22-18.09,22.91-36.89,43-49.59,0,0,3.7,46,20.7,74.46A5,5,0,0,1,781.07,164.06Z"/><path class="cls-1" d="M919.05,166.44c4.9,10.57,20.07,51.12.32,92.81a7.08,7.08,0,0,0,.47,7.06L963,328.72s33.86-30.07,36.91-108.32c1.15-29.71-4.74-59.37-18.23-85.86C972.42,116.45,960.06,100,940,87.33c0,0-3.7,46-20.71,74.47A5,5,0,0,0,919.05,166.44Z"/><path class="cls-1" d="M834.1,317.24l-29.28,50.11a4.08,4.08,0,0,0,2.69,6c13.6,2.86,50.3,8.91,85.21.17a4.08,4.08,0,0,0,2.51-6l-29.64-50.29S852.77,319.77,834.1,317.24Z"/><path class="cls-1" d="M827.74,120.78s19.61-5.06,45.65,0l19.9-44A13.64,13.64,0,0,0,880.86,57.5H822.13a14.84,14.84,0,0,0-13.52,21Z"/><path class="cls-2" d="M804.26,53.75s22.41-25.43,46.64-25.43,44.9,25.43,44.9,25.43,4.89-28.95-17.3-45A46.18,46.18,0,0,0,821.57,11C812.31,18.94,804.35,32.08,804.26,53.75Z"/><path class="cls-2" d="M769.38,406.8l-38.71-45.9,152-228.72a142.06,142.06,0,0,0,23.41-64.74c1.48-15.32.57-32.11-6.15-46.63,0,0,49.69,32.94,21.38,106.9S769.38,406.8,769.38,406.8Z"/><polygon class="cls-2" points="881.48 229.99 856.63 276.21 930.07 406.8 973.93 360.9 881.48 229.99"/><path class="cls-2" d="M818.64,211.93l27.3-40.3-26.16-39.88a146.58,146.58,0,0,1-23.66-65.87c-1.6-16.22-.38-33.28,8.14-45.07,0,0-36.89,17.68-31.65,72.67a127.38,127.38,0,0,0,10.8,40Z"/><path class="cls-3" d="M152.28,501.2l-5.82-3c5.69-11,22.85-14.93,23.57-15.09l1.44,6.4-.72-3.2.72,3.2C167.34,490.42,155.84,494.34,152.28,501.2Z"/><path class="cls-3" d="M612.23,501.2l-5.82-3c5.69-11,22.85-14.93,23.58-15.09l1.43,6.4-.72-3.2.72,3.2C627.29,490.42,615.79,494.34,612.23,501.2Z"/><rect class="cls-3" x="806.26" y="464.44" width="6.56" height="9.97"/><path class="cls-3" d="M780.53,501.2l-5.83-3c5.7-11,22.85-14.93,23.58-15.09l1.43,6.4-.72-3.2.72,3.2C795.58,490.42,784.08,494.34,780.53,501.2Z"/><rect class="cls-3" x="737.31" y="484.85" width="28.46" height="6.56"/><polygon class="cls-3" points="67.32 545.01 20.19 545.01 58.91 490.98 25.14 490.98 25.14 484.42 71.68 484.42 32.97 538.45 67.32 538.45 67.32 545.01"/><rect class="cls-3" x="146.09" y="486.29" width="6.56" height="57.4"/><rect class="cls-3" x="606.04" y="486.29" width="6.56" height="57.4"/><rect class="cls-3" x="774.33" y="486.29" width="6.56" height="57.4"/><rect class="cls-3" x="806.26" y="486.29" width="6.56" height="57.4"/><rect class="cls-3" x="642.23" y="533.72" width="6.56" height="9.97"/><path class="cls-3" d="M279.9,545.89a31.44,31.44,0,1,1,28.26-45.25l-5.9,2.89a24.88,24.88,0,1,0-1,23.7l5.62,3.38A31.62,31.62,0,0,1,279.9,545.89Z"/><path class="cls-3" d="M493.12,545.89a31.44,31.44,0,1,1,28.26-45.25l-5.89,2.89a24.89,24.89,0,1,0-1,23.7l5.63,3.38A31.64,31.64,0,0,1,493.12,545.89Z"/><path class="cls-3" d="M856.75,545.89A31.44,31.44,0,1,1,885,500.64l-5.89,2.89a24.88,24.88,0,1,0-1,23.7l5.62,3.38A31.63,31.63,0,0,1,856.75,545.89Z"/><path class="cls-3" d="M351.59,545.89c-18,0-32.72-14.11-32.72-31.44S333.54,483,351.59,483A32.69,32.69,0,0,1,381,500.59l-5.85,3a26.15,26.15,0,0,0-23.53-14c-14.43,0-26.16,11.16-26.16,24.88s11.73,24.88,26.16,24.88a26.62,26.62,0,0,0,22.48-12.16l5.55,3.49A32.76,32.76,0,0,1,351.59,545.89Z"/><path class="cls-3" d="M207.1,545.89a31.44,31.44,0,1,1,31.44-31.44A31.48,31.48,0,0,1,207.1,545.89Zm0-56.32A24.88,24.88,0,1,0,232,514.45,24.91,24.91,0,0,0,207.1,489.57Z"/><path class="cls-3" d="M562.91,545.89a31.44,31.44,0,1,1,31.44-32.19l.07,3.37-56.28-.32a24.89,24.89,0,0,0,47.13,8.64l5.89,2.89A31.26,31.26,0,0,1,562.91,545.89Zm-24.51-35.7,49.07.28a24.88,24.88,0,0,0-49.07-.28Z"/><path class="cls-3" d="M104.41,545.89a31.44,31.44,0,1,1,31.43-32.19l.08,3.37-56.28-.32a24.88,24.88,0,0,0,47.12,8.64l5.89,2.89A31.26,31.26,0,0,1,104.41,545.89Zm-24.52-35.7,49.08.28a24.88,24.88,0,0,0-49.08-.28Z"/><rect class="cls-3" x="374.04" y="486.3" width="6.56" height="58.68"/><path class="cls-3" d="M697.13,545.89c-18,0-32.72-14.11-32.72-31.44S679.09,483,697.13,483a32.67,32.67,0,0,1,29.38,17.58l-5.84,3a26.15,26.15,0,0,0-23.54-14c-14.42,0-26.16,11.16-26.16,24.88s11.74,24.88,26.16,24.88a26.62,26.62,0,0,0,22.49-12.16l5.55,3.49A32.77,32.77,0,0,1,697.13,545.89Z"/><rect class="cls-3" x="719.59" y="486.3" width="6.56" height="57.38"/><path class="cls-3" d="M928.48,545.89c-18,0-32.72-14.11-32.72-31.44S910.44,483,928.48,483a32.69,32.69,0,0,1,29.38,17.58l-5.84,3a26.15,26.15,0,0,0-23.54-14c-14.42,0-26.16,11.16-26.16,24.88s11.74,24.88,26.16,24.88A26.61,26.61,0,0,0,951,527.17l5.56,3.49A32.78,32.78,0,0,1,928.48,545.89Z"/><rect class="cls-3" x="950.94" y="486.3" width="6.56" height="57.38"/><rect class="cls-3" x="396" y="486.3" width="6.56" height="57.38"/><path class="cls-3" d="M752.44,543.68h-6.56V486.37c0-1.27-.31-12.95,6.66-20.28,3.65-3.85,8.54-5.8,14.53-5.8v6.57c-4.17,0-7.36,1.22-9.76,3.73-5.28,5.53-4.88,15.45-4.88,15.55v57.54Z"/><path class="cls-3" d="M448.5,543.68h-6.56V509.25a18.6,18.6,0,0,0-9.49-16.33c-10.56-5.85-20.85-2.55-30.59,9.81l-5.16-4.06c6.78-8.59,20.84-21.51,38.93-11.49a25.16,25.16,0,0,1,12.87,22.07Z"/><path class="cls-1" d="M683.06,326.69a27.53,27.53,0,0,0-2-2.35l-71.55-78-.43-5.85h0a71.29,71.29,0,0,0,71.29-71.29v-8a97.07,97.07,0,0,0-97.07-97.07h-80A41.33,41.33,0,0,0,462,105.48l0,231.23a32.81,32.81,0,0,0,32.82,32.82h.85a33.84,33.84,0,0,0,34-33.82c0-36.46,0-89.33,0-89.33h5.64l91.21,117.16a36.09,36.09,0,0,0,28.5,13.94C679.15,377.48,697,346,683.06,326.69ZM577.47,200.23H527.85V123.09h49.62A38.57,38.57,0,0,1,616,161.66h0A38.57,38.57,0,0,1,577.47,200.23Z"/></g></g></svg>